<?xml version="1.0" encoding="utf-8"?>
<!-- Generator: Adobe Illustrator 17.1.0, SVG Export Plug-In . SVG Version: 6.00 Build 0)  -->
<!DOCTYPE svg PUBLIC "-//W3C//DTD SVG 1.1//EN" "http://www.w3.org/Graphics/SVG/1.1/DTD/svg11.dtd">
<svg version="1.1" id="Layer_1" xmlns="http://www.w3.org/2000/svg" xmlns:xlink="http://www.w3.org/1999/xlink" x="0px" y="0px"
	 width="72px" height="68.8px" viewBox="0 0 72 68.8" style="enable-background:new 0 0 72 68.8;" xml:space="preserve">
<rect x="0.9" y="22.4" width="15.4" height="46.4"/>
<path d="M54.2,21.3c-8.2,0-11.9,4.5-13.9,7.7v-6.6H24.9c0.2,4.4,0,46.4,0,46.4h15.4V42.9c0-1.4,0.1-2.8,0.5-3.8
	c1.1-2.8,3.7-5.6,7.9-5.6c5.6,0,7.8,4.3,7.8,10.5v24.8H72V42.2C72,27.9,64.4,21.3,54.2,21.3z"/>
<path d="M8.7,0C3.5,0,0,3.5,0,8c0,4.5,3.4,8,8.5,8h0.1c5.4,0,8.7-3.6,8.7-8C17.3,3.5,14,0,8.7,0z"/>
</svg>
