<svg xmlns="http://www.w3.org/2000/svg" xmlns:xlink="http://www.w3.org/1999/xlink" width="0" height="0" style="position:absolute">

<symbol id="arrow-left" viewBox="0 0 34.8 60">
        <path d="M10.1 29.9L32.8 7.1c1.6-1.6 1.6-4.3 0-5.9C32 .4 30.9 0 29.9 0c-1.1 0-2.1.4-2.9 1.2L1.2 26.9c-.8.8-1.2 1.9-1.2 3s.4 2.1 1.2 3l25.7 25.7c1.6 1.6 4.3 1.6 5.9 0 1.6-1.6 1.6-4.3 0-5.9L10.1 29.9z"/>
</symbol>

<symbol id="arrow-right" viewBox="0 0 34.8 60">
        <path d="M23.9 29.9L1.2 52.6c-1.6 1.6-1.6 4.3 0 5.9.8.8 1.9 1.2 2.9 1.2 1.1 0 2.1-.4 2.9-1.2l25.7-25.7c.8-.8 1.2-1.9 1.2-3s-.4-2.1-1.2-3L7.1 1.2C5.5-.4 2.8-.4 1.2 1.2c-1.6 1.6-1.6 4.3 0 5.9l22.7 22.8z"/>
</symbol>

<symbol id="cujojp" viewBox="0 0 2350.8 893">
        <style type="text/css">.st0{fill-rule:evenodd;clip-rule:evenodd;}</style><g id="acLayer_2"><path class="st0" d="M1304.5 1c-51-.3-102-.7-153-1-108.1 134.8-154.9 190.8-155 191h68c79.3-62.3 158.7-124.7 238-187 .6-1 1.3-2 2-3zM330.5 595c-94.7 56-209.4 4.6-243-71-54.8-123.2 26.5-284.4 172-262 18.2 2.8 33.7 4.9 48 11 12.3 6.7 24.7 13.3 37 20 18.3-11.7 36.7-23.3 55-35 .7-1 1.3-2 2-3-46.3-58.9-163.9-79.4-252-45-98.6 38.5-189.6 178.3-131 321 26.7 64.8 79 112.6 148 135 160.1 51.9 304.2-61.1 311-202-21.7-.7-43.3-1.3-65-2-17.1 60.9-33.8 104.5-82 133zM904.5 449V213c-21.3-.3-42.7-.6-64-1v301c-1.2 19.4-5.8 34.9-8 39-15.9 26.7-34.2 54.6-84 65-67.9 14.2-120-21.5-138-65-4.1-9.8-6.1-17.8-7.1-36-.9-18.1.1-176 .1-303-21-.3-42-.7-63-1-2.2 4.1-1.7 343.8-3.9 299.7.9 20 3.2 38.6 7.9 54.3 24.5 80.8 99.2 109.3 190 108 86.4-1.2 141.7-48.7 161-98 12.6-32.2 9-82.7 9-127zM536.5 511.7c0-.9-.1-1.7-.1-2.6.1 1 .1 1.9.1 2.6zM1754.5 351V213c-22-.3-44-.7-66-1v383c0 133.7 12.3 230-98 257l41 41c59.4-5.1 104.6-74.4 118-128 10-39.9 5-96.5 5-144V351zM1060.2 351V213c-22-.3-44-.7-66-1v383c0 133.7 12.3 230-98 257l41 41c59.4-5.1 104.6-74.4 118-128 10-39.9 5-96.5 5-144V351zM2339.5 368c-24.5-78.4-79.3-132.9-158-157-61.9-18.9-144.6-4.7-187 20-62.5 36.5-104.1 87.4-119 165-9.6 49.8-3 115-3 170v325h61c.3-96 .7-192 1-288 35.6 26.1 63.9 51.2 114 65 179.5 49.5 348.1-117.3 291-300zm-228.6 242.3c-95.5 0-172.9-77.4-172.9-172.9s77.4-172.9 172.9-172.9 172.9 77.4 172.9 172.9-77.4 172.9-172.9 172.9zM1376 201.5c-132 0-239 107-239 239s107 239 239 239 239-107 239-239-107-239-239-239zm1 409c-95.3 0-172.5-77.2-172.5-172.5s77.2-172.5 172.5-172.5 172.5 77.2 172.5 172.5-77.2 172.5-172.5 172.5z"/></g>
</symbol>

<symbol id="keyboard" viewBox="0 0 769.2 772.2">
        <path d="M209.6 24c0-13.3-10.7-24-24-24H24C10.7 0 0 10.7 0 24v161.7c0 13.3 10.7 24 24 24h161.7c13.3 0 24-10.7 24-24L209.6 24zm0 0M489.4 24c0-13.3-10.7-24-24-24H303.8c-13.3 0-24 10.7-24 24v161.7c0 13.3 10.7 24 24 24h161.6c13.3 0 24-10.7 24-24V24zm0 0M769.1 24c0-13.3-10.7-24-24-24H583.5c-13.3 0-24 10.7-24 24v161.7c0 13.3 10.7 24 24 24h161.7c13.3 0 24-10.7 24-24L769.1 24zm0 0M209.6 305.3c0-13.3-10.7-24-24-24H24c-13.3 0-24 10.7-24 24v161.6c0 13.3 10.7 24 24 24h161.7c13.3 0 24-10.7 24-24l-.1-161.6zm0 0M489.4 305.3c0-13.3-10.7-24-24-24H303.8c-13.3 0-24 10.7-24 24v161.6c0 13.3 10.7 24 24 24h161.6c13.3 0 24-10.7 24-24V305.3zm0 0M769.1 305.3c0-13.3-10.7-24-24-24H583.5c-13.3 0-24 10.7-24 24v161.6c0 13.3 10.7 24 24 24h161.7c13.3 0 24-10.7 24-24l-.1-161.6zm0 0M185.6 562.5H24c-13.3 0-24 10.7-24 24v161.7c0 13.3 10.7 24 24 24h161.7c13.3 0 24-10.7 24-24V586.5c-.1-13.2-10.8-24-24.1-24zm0 0M465.4 562.5H303.8c-13.3 0-24 10.7-24 24v161.7c0 13.3 10.7 24 24 24h161.6c13.3 0 24-10.7 24-24V586.5c0-13.2-10.8-24-24-24zm0 0M745.1 562.5H583.5c-13.3 0-24 10.7-24 24v161.7c0 13.3 10.7 24 24 24h161.7c13.3 0 24-10.7 24-24V586.5c-.1-13.2-10.8-24-24.1-24zm0 0"/>
</symbol>

<symbol id="menu" viewBox="0 0 14.4 9.6">
        <path d="M0 8h14.4v1.6H0zM0 0h14.4v1.6H0zM0 4h14.4v1.6H0z"/>
</symbol>
</svg>