<svg xmlns="http://www.w3.org/2000/svg" xmlns:xlink="http://www.w3.org/1999/xlink" width="0" height="0" style="position:absolute">

<symbol id="cujojp" viewBox="0 0 2350.8 893">
        <style type="text/css">.st0{fill-rule:evenodd;clip-rule:evenodd;fill:#020202;}.st1{fill-rule:evenodd;clip-rule:evenodd;}</style><path class="st0" d="M1151.5 0c51 .3 102 .7 153 1-.7 1-1.3 2-2 3-79.3 62.3-158.7 124.7-238 187h-68c0-.2 46.9-56.2 155-191zM477.5 464c-6.8 140.9-150.9 253.9-311 202-69-22.4-121.3-70.2-148-135-58.6-142.7 32.4-282.5 131-321 88.1-34.4 205.7-13.9 252 45-.7 1-1.3 2-2 3-18.3 11.7-36.7 23.3-55 35-12.3-6.7-24.7-13.3-37-20-14.3-6.1-29.8-8.2-48-11C114 239.6 32.7 400.8 87.5 524c33.6 75.6 148.3 127 243 71 48.2-28.5 64.9-72.1 82-133 21.6.7 43.3 1.3 65 2zM540.5 212c21 .3 42 .7 63 1 0 127-1 284.9-.1 303 .9 18.1 3 26.1 7.1 36 18 43.5 70.1 79.2 138 65 49.8-10.4 68.1-38.3 84-65 2.2-4.1 6.8-19.6 8-39V212c21.3.4 42.7.7 64 1v236c0 44.3 3.6 94.8-9 127-19.3 49.3-74.6 96.8-161 98-90.8 1.3-165.5-27.2-190-108-4.9-16.3-7.2-35.9-8.1-56.8 2.4 58.2 1.8-293 4.1-297.2zM1688.5 212c22 .3 44 .7 66 1v408c0 47.5 5 104.1-5 144-13.4 53.6-58.6 122.9-118 128l-41-41c110.3-27 98-123.3 98-257V212zM994.2 212c22 .3 44 .7 66 1v408c0 47.5 5 104.1-5 144-13.4 53.6-58.6 122.9-118 128l-41-41c110.3-27 98-123.3 98-257V212zM2339.5 368c-24.5-78.4-79.3-132.9-158-157-61.9-18.9-144.6-4.7-187 20-62.5 36.5-104.1 87.4-119 165-9.6 49.8-3 115-3 170v325h61c.3-96 .7-192 1-288 35.6 26.1 63.9 51.2 114 65 179.5 49.5 348.1-117.3 291-300zm-228.6 242.3c-95.5 0-172.9-77.4-172.9-172.9s77.4-172.9 172.9-172.9 172.9 77.4 172.9 172.9-77.4 172.9-172.9 172.9z"/><path class="st1" d="M1376 201.5c-132 0-239 107-239 239s107 239 239 239 239-107 239-239-107-239-239-239zm1 409c-95.3 0-172.5-77.2-172.5-172.5s77.2-172.5 172.5-172.5 172.5 77.2 172.5 172.5-77.2 172.5-172.5 172.5z" id="aaLayer_2"/>
</symbol>

<symbol id="menu" viewBox="0 0 14.4 9.6">
        <path d="M0 8h14.4v1.6H0zM0 0h14.4v1.6H0zM0 4h14.4v1.6H0z"/>
</symbol>
</svg>