<?xml version="1.0" encoding="utf-8"?><!DOCTYPE svg PUBLIC "-//W3C//DTD SVG 1.1//EN" "http://www.w3.org/Graphics/SVG/1.1/DTD/svg11.dtd"><svg xmlns="http://www.w3.org/2000/svg" xmlns:xlink="http://www.w3.org/1999/xlink"><symbol viewBox="0 0 34.8 60" id="arrow-left"><path d="M10.1 29.9L32.8 7.1c1.6-1.6 1.6-4.3 0-5.9C32 .4 30.9 0 29.9 0c-1.1 0-2.1.4-2.9 1.2L1.2 26.9c-.8.8-1.2 1.9-1.2 3s.4 2.1 1.2 3l25.7 25.7c1.6 1.6 4.3 1.6 5.9 0 1.6-1.6 1.6-4.3 0-5.9L10.1 29.9z"/></symbol><symbol viewBox="0 0 34.8 60" id="arrow-right"><path d="M23.9 29.9L1.2 52.6c-1.6 1.6-1.6 4.3 0 5.9.8.8 1.9 1.2 2.9 1.2 1.1 0 2.1-.4 2.9-1.2l25.7-25.7c.8-.8 1.2-1.9 1.2-3s-.4-2.1-1.2-3L7.1 1.2C5.5-.4 2.8-.4 1.2 1.2c-1.6 1.6-1.6 4.3 0 5.9l22.7 22.8z"/></symbol><symbol viewBox="0 0 2350.8 893" id="cujojp"><style type="text/css">.st0{fill-rule:evenodd;clip-rule:evenodd}</style><g id="cLayer_2"><path class="st0" d="M1304.5 1c-51-.3-102-.7-153-1-108.1 134.8-154.9 190.8-155 191h68c79.3-62.3 158.7-124.7 238-187 .6-1 1.3-2 2-3zM330.5 595c-94.7 56-209.4 4.6-243-71-54.8-123.2 26.5-284.4 172-262 18.2 2.8 33.7 4.9 48 11 12.3 6.7 24.7 13.3 37 20 18.3-11.7 36.7-23.3 55-35 .7-1 1.3-2 2-3-46.3-58.9-163.9-79.4-252-45-98.6 38.5-189.6 178.3-131 321 26.7 64.8 79 112.6 148 135 160.1 51.9 304.2-61.1 311-202-21.7-.7-43.3-1.3-65-2-17.1 60.9-33.8 104.5-82 133zM904.5 449V213c-21.3-.3-42.7-.6-64-1v301c-1.2 19.4-5.8 34.9-8 39-15.9 26.7-34.2 54.6-84 65-67.9 14.2-120-21.5-138-65-4.1-9.8-6.1-17.8-7.1-36-.9-18.1.1-176 .1-303-21-.3-42-.7-63-1-2.2 4.1-1.7 343.8-3.9 299.7.9 20 3.2 38.6 7.9 54.3 24.5 80.8 99.2 109.3 190 108 86.4-1.2 141.7-48.7 161-98 12.6-32.2 9-82.7 9-127zM536.5 511.7c0-.9-.1-1.7-.1-2.6.1 1 .1 1.9.1 2.6zM1754.5 351V213c-22-.3-44-.7-66-1v383c0 133.7 12.3 230-98 257l41 41c59.4-5.1 104.6-74.4 118-128 10-39.9 5-96.5 5-144V351zM1060.2 351V213c-22-.3-44-.7-66-1v383c0 133.7 12.3 230-98 257l41 41c59.4-5.1 104.6-74.4 118-128 10-39.9 5-96.5 5-144V351zM2339.5 368c-24.5-78.4-79.3-132.9-158-157-61.9-18.9-144.6-4.7-187 20-62.5 36.5-104.1 87.4-119 165-9.6 49.8-3 115-3 170v325h61c.3-96 .7-192 1-288 35.6 26.1 63.9 51.2 114 65 179.5 49.5 348.1-117.3 291-300zm-228.6 242.3c-95.5 0-172.9-77.4-172.9-172.9s77.4-172.9 172.9-172.9 172.9 77.4 172.9 172.9-77.4 172.9-172.9 172.9zM1376 201.5c-132 0-239 107-239 239s107 239 239 239 239-107 239-239-107-239-239-239zm1 409c-95.3 0-172.5-77.2-172.5-172.5s77.2-172.5 172.5-172.5 172.5 77.2 172.5 172.5-77.2 172.5-172.5 172.5z"/></g></symbol><symbol viewBox="0 0 72 72" id="icon-facebook"><path d="M60 0H12C5.7 0 0 5.7 0 12v48c0 6.3 5.7 12 12 12h24V44.8h-8.8v-12H36v-4.7c0-8.1 6.1-15.3 13.5-15.3h9.7v12h-9.7c-1.1 0-2.3 1.3-2.3 3.2v4.8h12v12h-12V72H60c6.3 0 12-5.7 12-12V12c0-6.3-5.7-12-12-12z"/></symbol><symbol viewBox="0 0 409.6 409.6" id="icon-github"><path d="M204.8 0C91.7 0 0 91.7 0 204.8c0 113.1 91.7 204.8 204.8 204.8 113.1 0 204.8-91.7 204.8-204.8C409.6 91.7 317.9 0 204.8 0zm.9 114c-17.2-.1-33.6 2.2-49.2 6.6-7.1-4.8-13.8-8.8-20.1-11.9-6.3-3.1-11.4-5.3-15.2-6.4-3.8-1.1-7.3-1.8-10.6-2.1-3.3-.3-5.4-.3-6.3-.2-.9.1-1.6.3-2 .4-7.5 18.9-8.1 36.3-2 52.2-13.5 14.5-20.2 32.1-20.2 52.8 0 10.7.9 20.4 2.8 29.3 1.9 8.9 4.4 16.5 7.6 22.8s7.2 12 11.9 17 9.7 9.1 14.8 12.2c5.1 3.1 10.9 5.8 17.4 8.1 6.5 2.3 12.6 4 18.4 5.2 5.8 1.2 12.2 2.1 19.1 2.8-10.9 7.5-16.4 19.3-16.4 35.6v31.3c-6-1.8-12-3.9-17.8-6.4-20.5-8.7-38.9-21.1-54.7-36.9-15.8-15.8-28.2-34.2-36.9-54.7-9-21.2-13.5-43.7-13.5-66.9 0-23.2 4.5-45.8 13.5-66.9C55 117.4 67.4 99 83.2 83.2 99 67.4 117.4 55 137.9 46.3c21.2-9 43.7-13.5 66.9-13.5 23.2 0 45.8 4.5 66.9 13.5 20.5 8.7 38.9 21.1 54.7 36.9 15.8 15.8 28.2 34.2 36.9 54.7 9 21.2 13.5 43.7 13.5 66.9 0 23.2-4.5 45.8-13.5 66.9-8.7 20.5-21.1 38.9-36.9 54.7-15.8 15.8-34.2 28.2-54.7 36.9-5.2 2.2-10.5 4.1-15.8 5.8v-30.7c0-16.1-5.5-28-16.6-35.6 6.9-.7 13.3-1.6 19.1-2.8 5.8-1.2 11.9-2.9 18.4-5.2 6.5-2.3 12.3-5 17.4-8.1 5.1-3.1 10.1-7.2 14.8-12.2s8.7-10.7 11.9-17c3.2-6.3 5.7-13.9 7.6-22.8s2.8-18.6 2.8-29.3c0-20.7-6.7-38.3-20.2-52.8 6.1-16 5.5-33.4-2-52.2l-5-.6c-3.5-.4-9.7 1.1-18.7 4.4-9 3.3-19.1 8.8-30.3 16.4"/></symbol><symbol viewBox="0 0 77.9 77.9" id="icon-instagram"><style type="text/css">.st0{fill-rule:evenodd;clip-rule:evenodd}</style><path class="st0" d="M67.9 0H10C4.5 0 0 4.1 0 10v57.9c0 5.9 4.5 10 10 10h57.9c5.5 0 10-4.1 10-10V10c0-5.9-4.5-10-10-10zM53.2 12.2c0-1.9 1.6-3.5 3.5-3.5h8.8c1.9 0 3.5 1.6 3.5 3.5v8.4c0 1.9-1.6 3.5-3.5 3.5h-8.8c-1.9 0-3.5-1.6-3.5-3.5v-8.4zM39 23.6c8.6 0 15.6 6.8 15.6 15.2S47.7 54 39 54c-8.6 0-15.6-6.8-15.6-15.2s7-15.2 15.6-15.2zm30.1 42.3c0 1.7-1.4 3.1-3.1 3.1H11.8c-1.7 0-3.1-1.4-3.1-3.1v-33h7.2c-.6 2.1-1 4.4-1 6.7 0 13 10.8 23.5 24.2 23.5s24.2-10.5 24.2-23.5c0-2.3-.4-4.6-1-6.7h6.9v33z"/></symbol><symbol viewBox="0 0 72 68.8" id="icon-linkedin"><path d="M.9 22.4h15.4v46.4H.9zM54.2 21.3c-8.2 0-11.9 4.5-13.9 7.7v-6.6H24.9c.2 4.4 0 46.4 0 46.4h15.4V42.9c0-1.4.1-2.8.5-3.8 1.1-2.8 3.7-5.6 7.9-5.6 5.6 0 7.8 4.3 7.8 10.5v24.8H72V42.2c0-14.3-7.6-20.9-17.8-20.9zM8.7 0C3.5 0 0 3.5 0 8s3.4 8 8.5 8h.1c5.4 0 8.7-3.6 8.7-8 0-4.5-3.3-8-8.6-8z"/></symbol><symbol viewBox="0 0 409.6 307.2" id="icon-mail"><path d="M382.8 6.4c-7.3-4-15.5-6.4-24.4-6.4H51.2c-8.9 0-17.1 2.4-24.4 6.4l178 155.8 178-155.8zM8 24c-5 7.9-8 17.2-8 27.2V256c0 9 2.5 17.3 6.6 24.6l129.3-144.7L8 24zM213.2 188.9c-2.4 2.1-5.4 3.1-8.4 3.1s-6-1.1-8.4-3.2l-41.2-36.1-131 146.6c7.9 4.9 17.1 7.9 27 7.9h307.2c10 0 19.2-2.9 27-7.9l-131-146.6-41.2 36.2zM401.6 24L273.7 135.9 403 280.6c4.1-7.3 6.6-15.6 6.6-24.6V51.2c0-10-3-19.3-8-27.2z"/></symbol><symbol viewBox="0 0 12.8 10.4" id="icon-twitter"><path d="M12.8 1.2c-.5.2-1 .4-1.5.4.5-.3 1-.8 1.2-1.5-.5.3-1.1.5-1.7.6C10.3.3 9.6 0 8.9 0 7.4 0 6.2 1.2 6.2 2.6c0 .2 0 .4.1.6C4.1 3.1 2.2 2.1.9.5.7.9.5 1.3.5 1.8c0 .9.5 1.7 1.2 2.2-.4 0-.8-.1-1.2-.3C.5 5 1.4 6 2.6 6.3c-.2 0-.4.1-.7.1h-.5c.3 1 1.3 1.8 2.5 1.8-.9.6-2 1.1-3.3 1.1H0c1.2.7 2.5 1.2 4 1.2 4.8 0 7.5-4 7.5-7.5v-.3c.5-.5.9-.9 1.3-1.5z"/></symbol><symbol viewBox="0 0 769.2 772.2" id="keyboard"><path d="M209.6 24c0-13.3-10.7-24-24-24H24C10.7 0 0 10.7 0 24v161.7c0 13.3 10.7 24 24 24h161.7c13.3 0 24-10.7 24-24L209.6 24zm0 0M489.4 24c0-13.3-10.7-24-24-24H303.8c-13.3 0-24 10.7-24 24v161.7c0 13.3 10.7 24 24 24h161.6c13.3 0 24-10.7 24-24V24zm0 0M769.1 24c0-13.3-10.7-24-24-24H583.5c-13.3 0-24 10.7-24 24v161.7c0 13.3 10.7 24 24 24h161.7c13.3 0 24-10.7 24-24L769.1 24zm0 0M209.6 305.3c0-13.3-10.7-24-24-24H24c-13.3 0-24 10.7-24 24v161.6c0 13.3 10.7 24 24 24h161.7c13.3 0 24-10.7 24-24l-.1-161.6zm0 0M489.4 305.3c0-13.3-10.7-24-24-24H303.8c-13.3 0-24 10.7-24 24v161.6c0 13.3 10.7 24 24 24h161.6c13.3 0 24-10.7 24-24V305.3zm0 0M769.1 305.3c0-13.3-10.7-24-24-24H583.5c-13.3 0-24 10.7-24 24v161.6c0 13.3 10.7 24 24 24h161.7c13.3 0 24-10.7 24-24l-.1-161.6zm0 0M185.6 562.5H24c-13.3 0-24 10.7-24 24v161.7c0 13.3 10.7 24 24 24h161.7c13.3 0 24-10.7 24-24V586.5c-.1-13.2-10.8-24-24.1-24zm0 0M465.4 562.5H303.8c-13.3 0-24 10.7-24 24v161.7c0 13.3 10.7 24 24 24h161.6c13.3 0 24-10.7 24-24V586.5c0-13.2-10.8-24-24-24zm0 0M745.1 562.5H583.5c-13.3 0-24 10.7-24 24v161.7c0 13.3 10.7 24 24 24h161.7c13.3 0 24-10.7 24-24V586.5c-.1-13.2-10.8-24-24.1-24zm0 0"/></symbol><symbol viewBox="0 0 14.4 9.6" id="menu"><path d="M0 8h14.4v1.6H0zM0 0h14.4v1.6H0zM0 4h14.4v1.6H0z"/></symbol></svg>