<?xml version="1.0" encoding="utf-8"?>
<!-- Generator: Adobe Illustrator 17.1.0, SVG Export Plug-In . SVG Version: 6.00 Build 0)  -->
<!DOCTYPE svg PUBLIC "-//W3C//DTD SVG 1.1//EN" "http://www.w3.org/Graphics/SVG/1.1/DTD/svg11.dtd">
<svg version="1.1" id="Layer_1" xmlns="http://www.w3.org/2000/svg" xmlns:xlink="http://www.w3.org/1999/xlink" x="0px" y="0px"
	 width="2350.8px" height="893px" viewBox="0 0 2350.8 893" style="enable-background:new 0 0 2350.8 893;" xml:space="preserve">
<style type="text/css">
	.st0{fill-rule:evenodd;clip-rule:evenodd;}
</style>
<g id="Layer_2">
	<g>
		<path class="st0" d="M1304.5,1c-51-0.3-102-0.7-153-1c-108.1,134.8-154.9,190.8-155,191c22,0,46,0,68,0
			c79.3-62.3,158.7-124.7,238-187C1303.1,3,1303.8,2,1304.5,1z"/>
		<path class="st0" d="M330.5,595c-94.7,56-209.4,4.6-243-71c-54.8-123.2,26.5-284.4,172-262c18.2,2.8,33.7,4.9,48,11
			c12.3,6.7,24.7,13.3,37,20c18.3-11.7,36.7-23.3,55-35c0.7-1,1.3-2,2-3c-46.3-58.9-163.9-79.4-252-45
			c-98.6,38.5-189.6,178.3-131,321c26.7,64.8,79,112.6,148,135c160.1,51.9,304.2-61.1,311-202c-21.7-0.7-43.3-1.3-65-2
			C395.4,522.9,378.7,566.5,330.5,595z"/>
		<path class="st0" d="M904.5,449c0-78.7,0-157.3,0-236c-21.3-0.3-42.7-0.6-64-1c0,163.8,0,268.6,0,301c-1.2,19.4-5.8,34.9-8,39
			c-15.9,26.7-34.2,54.6-84,65c-67.9,14.2-120-21.5-138-65c-4.1-9.8-6.1-17.8-7.1-36c-0.9-18.1,0.1-176,0.1-303c-21-0.3-42-0.7-63-1
			c-2.2,4.1-1.7,343.8-3.9,299.7c0.9,20,3.2,38.6,7.9,54.3c24.5,80.8,99.2,109.3,190,108c86.4-1.2,141.7-48.7,161-98
			C908.1,543.8,904.5,493.3,904.5,449z"/>
		<path class="st0" d="M536.5,511.7c0-0.9-0.1-1.7-0.1-2.6C536.5,510.1,536.5,511,536.5,511.7z"/>
		<path class="st0" d="M1754.5,351c0-46,0-92,0-138c-22-0.3-44-0.7-66-1c0,127.7,0,255.3,0,383c0,133.7,12.3,230-98,257
			c13.7,13.7,27.3,27.3,41,41c59.4-5.1,104.6-74.4,118-128c10-39.9,5-96.5,5-144C1754.5,531,1754.5,441,1754.5,351z"/>
		<path class="st0" d="M1060.2,351c0-46,0-92,0-138c-22-0.3-44-0.7-66-1c0,127.7,0,255.3,0,383c0,133.7,12.3,230-98,257
			c13.7,13.7,27.3,27.3,41,41c59.4-5.1,104.6-74.4,118-128c10-39.9,5-96.5,5-144C1060.2,531,1060.2,441,1060.2,351z"/>
		<path class="st0" d="M2339.5,368c-24.5-78.4-79.3-132.9-158-157c-61.9-18.9-144.6-4.7-187,20c-62.5,36.5-104.1,87.4-119,165
			c-9.6,49.8-3,115-3,170c0,108.3,0,216.7,0,325c20.3,0,40.7,0,61,0c0.3-96,0.7-192,1-288c35.6,26.1,63.9,51.2,114,65
			C2228,717.5,2396.6,550.7,2339.5,368z M2110.9,610.3c-95.5,0-172.9-77.4-172.9-172.9s77.4-172.9,172.9-172.9
			c95.5,0,172.9,77.4,172.9,172.9S2206.4,610.3,2110.9,610.3z"/>
		<path class="st0" d="M1376,201.5c-132,0-239,107-239,239s107,239,239,239s239-107,239-239S1508,201.5,1376,201.5z M1377,610.5
			c-95.3,0-172.5-77.2-172.5-172.5s77.2-172.5,172.5-172.5c95.3,0,172.5,77.2,172.5,172.5S1472.3,610.5,1377,610.5z"/>
	</g>
</g>
</svg>
