<?xml version="1.0" encoding="utf-8"?>
<!-- Generator: Adobe Illustrator 17.1.0, SVG Export Plug-In . SVG Version: 6.00 Build 0)  -->
<!DOCTYPE svg PUBLIC "-//W3C//DTD SVG 1.1//EN" "http://www.w3.org/Graphics/SVG/1.1/DTD/svg11.dtd">
<svg version="1.1" id="Layer_1" xmlns="http://www.w3.org/2000/svg" xmlns:xlink="http://www.w3.org/1999/xlink" x="0px" y="0px"
	 width="2350.8px" height="893px" viewBox="0 0 2350.8 893" style="enable-background:new 0 0 2350.8 893;" xml:space="preserve">
<style type="text/css">
	.st0{fill-rule:evenodd;clip-rule:evenodd;fill:#020202;}
	.st1{fill-rule:evenodd;clip-rule:evenodd;}
</style>
<path class="st0" d="M1151.5,0c51,0.3,102,0.7,153,1c-0.7,1-1.3,2-2,3c-79.3,62.3-158.7,124.7-238,187c-22,0-46,0-68,0
	C996.5,190.8,1043.4,134.8,1151.5,0z"/>
<path class="st0" d="M477.5,464c-6.8,140.9-150.9,253.9-311,202c-69-22.4-121.3-70.2-148-135c-58.6-142.7,32.4-282.5,131-321
	c88.1-34.4,205.7-13.9,252,45c-0.7,1-1.3,2-2,3c-18.3,11.7-36.7,23.3-55,35c-12.3-6.7-24.7-13.3-37-20c-14.3-6.1-29.8-8.2-48-11
	C114,239.6,32.7,400.8,87.5,524c33.6,75.6,148.3,127,243,71c48.2-28.5,64.9-72.1,82-133C434.1,462.7,455.8,463.3,477.5,464z"/>
<path class="st0" d="M540.5,212c21,0.3,42,0.7,63,1c0,127-1,284.9-0.1,303c0.9,18.1,3,26.1,7.1,36c18,43.5,70.1,79.2,138,65
	c49.8-10.4,68.1-38.3,84-65c2.2-4.1,6.8-19.6,8-39c0-32.4,0-137.2,0-301c21.3,0.4,42.7,0.7,64,1c0,78.7,0,157.3,0,236
	c0,44.3,3.6,94.8-9,127c-19.3,49.3-74.6,96.8-161,98c-90.8,1.3-165.5-27.2-190-108c-4.9-16.3-7.2-35.9-8.1-56.8
	C538.8,567.4,538.2,216.2,540.5,212z"/>
<path class="st0" d="M1688.5,212c22,0.3,44,0.7,66,1c0,46,0,92,0,138c0,90,0,180,0,270c0,47.5,5,104.1-5,144
	c-13.4,53.6-58.6,122.9-118,128c-13.7-13.7-27.3-27.3-41-41c110.3-27,98-123.3,98-257C1688.5,467.3,1688.5,339.7,1688.5,212z"/>
<path class="st0" d="M994.2,212c22,0.3,44,0.7,66,1c0,46,0,92,0,138c0,90,0,180,0,270c0,47.5,5,104.1-5,144
	c-13.4,53.6-58.6,122.9-118,128c-13.7-13.7-27.3-27.3-41-41c110.3-27,98-123.3,98-257C994.2,467.3,994.2,339.7,994.2,212z"/>
<path class="st0" d="M2339.5,368c-24.5-78.4-79.3-132.9-158-157c-61.9-18.9-144.6-4.7-187,20c-62.5,36.5-104.1,87.4-119,165
	c-9.6,49.8-3,115-3,170c0,108.3,0,216.7,0,325c20.3,0,40.7,0,61,0c0.3-96,0.7-192,1-288c35.6,26.1,63.9,51.2,114,65
	C2228,717.5,2396.6,550.7,2339.5,368z M2110.9,610.3c-95.5,0-172.9-77.4-172.9-172.9s77.4-172.9,172.9-172.9
	c95.5,0,172.9,77.4,172.9,172.9S2206.4,610.3,2110.9,610.3z"/>
<g id="Layer_2">
	<path class="st1" d="M1376,201.5c-132,0-239,107-239,239s107,239,239,239s239-107,239-239S1508,201.5,1376,201.5z M1377,610.5
		c-95.3,0-172.5-77.2-172.5-172.5s77.2-172.5,172.5-172.5c95.3,0,172.5,77.2,172.5,172.5S1472.3,610.5,1377,610.5z"/>
</g>
</svg>
