<?xml version="1.0" encoding="utf-8"?>
<!-- Generator: Adobe Illustrator 17.1.0, SVG Export Plug-In . SVG Version: 6.00 Build 0)  -->
<!DOCTYPE svg PUBLIC "-//W3C//DTD SVG 1.1//EN" "http://www.w3.org/Graphics/SVG/1.1/DTD/svg11.dtd">
<svg version="1.1" id="Layer_1" xmlns="http://www.w3.org/2000/svg" xmlns:xlink="http://www.w3.org/1999/xlink" x="0px" y="0px"
	 width="409.6px" height="409.6px" viewBox="0 0 409.6 409.6" style="enable-background:new 0 0 409.6 409.6;" xml:space="preserve"
	>
<path d="M204.8,0C91.7,0,0,91.7,0,204.8c0,113.1,91.7,204.8,204.8,204.8c113.1,0,204.8-91.7,204.8-204.8C409.6,91.7,317.9,0,204.8,0
	z M205.7,114c-17.2-0.1-33.6,2.2-49.2,6.6c-7.1-4.8-13.8-8.8-20.1-11.9c-6.3-3.1-11.4-5.3-15.2-6.4c-3.8-1.1-7.3-1.8-10.6-2.1
	c-3.3-0.3-5.4-0.3-6.3-0.2c-0.9,0.1-1.6,0.3-2,0.4c-7.5,18.9-8.1,36.3-2,52.2c-13.5,14.5-20.2,32.1-20.2,52.8
	c0,10.7,0.9,20.4,2.8,29.3c1.9,8.9,4.4,16.5,7.6,22.8s7.2,12,11.9,17c4.7,5,9.7,9.1,14.8,12.2c5.1,3.1,10.9,5.8,17.4,8.1
	c6.5,2.3,12.6,4,18.4,5.2c5.8,1.2,12.2,2.1,19.1,2.8c-10.9,7.5-16.4,19.3-16.4,35.6v31.3c-6-1.8-12-3.9-17.8-6.4
	c-20.5-8.7-38.9-21.1-54.7-36.9c-15.8-15.8-28.2-34.2-36.9-54.7c-9-21.2-13.5-43.7-13.5-66.9c0-23.2,4.5-45.8,13.5-66.9
	C55,117.4,67.4,99,83.2,83.2C99,67.4,117.4,55,137.9,46.3c21.2-9,43.7-13.5,66.9-13.5c23.2,0,45.8,4.5,66.9,13.5
	c20.5,8.7,38.9,21.1,54.7,36.9c15.8,15.8,28.2,34.2,36.9,54.7c9,21.2,13.5,43.7,13.5,66.9c0,23.2-4.5,45.8-13.5,66.9
	c-8.7,20.5-21.1,38.9-36.9,54.7c-15.8,15.8-34.2,28.2-54.7,36.9c-5.2,2.2-10.5,4.1-15.8,5.8v-30.7c0-16.1-5.5-28-16.6-35.6
	c6.9-0.7,13.3-1.6,19.1-2.8c5.8-1.2,11.9-2.9,18.4-5.2c6.5-2.3,12.3-5,17.4-8.1c5.1-3.1,10.1-7.2,14.8-12.2s8.7-10.7,11.9-17
	c3.2-6.3,5.7-13.9,7.6-22.8s2.8-18.6,2.8-29.3c0-20.7-6.7-38.3-20.2-52.8c6.1-16,5.5-33.4-2-52.2l-5-0.6c-3.5-0.4-9.7,1.1-18.7,4.4
	c-9,3.3-19.1,8.8-30.3,16.4"/>
</svg>
