<?xml version="1.0" encoding="utf-8"?>
<!-- Generator: Adobe Illustrator 17.1.0, SVG Export Plug-In . SVG Version: 6.00 Build 0)  -->
<!DOCTYPE svg PUBLIC "-//W3C//DTD SVG 1.1//EN" "http://www.w3.org/Graphics/SVG/1.1/DTD/svg11.dtd">
<svg version="1.1" id="Layer_1" xmlns="http://www.w3.org/2000/svg" xmlns:xlink="http://www.w3.org/1999/xlink" x="0px" y="0px"
	 width="409.6px" height="307.2px" viewBox="0 0 409.6 307.2" style="enable-background:new 0 0 409.6 307.2;" xml:space="preserve"
	>
<g>
	<path d="M382.8,6.4c-7.3-4-15.5-6.4-24.4-6.4H51.2c-8.9,0-17.1,2.4-24.4,6.4l178,155.8L382.8,6.4z"/>
	<path d="M8,24c-5,7.9-8,17.2-8,27.2V256c0,9,2.5,17.3,6.6,24.6l129.3-144.7L8,24z"/>
	<path d="M213.2,188.9c-2.4,2.1-5.4,3.1-8.4,3.1c-3,0-6-1.1-8.4-3.2l-41.2-36.1l-131,146.6c7.9,4.9,17.1,7.9,27,7.9h307.2
		c10,0,19.2-2.9,27-7.9l-131-146.6L213.2,188.9z"/>
	<path d="M401.6,24L273.7,135.9L403,280.6c4.1-7.3,6.6-15.6,6.6-24.6V51.2C409.6,41.2,406.6,31.9,401.6,24z"/>
</g>
</svg>
