<?xml version="1.0" encoding="utf-8"?>
<!-- Generator: Adobe Illustrator 17.1.0, SVG Export Plug-In . SVG Version: 6.00 Build 0)  -->
<!DOCTYPE svg PUBLIC "-//W3C//DTD SVG 1.1//EN" "http://www.w3.org/Graphics/SVG/1.1/DTD/svg11.dtd">
<svg version="1.1" id="Layer_1" xmlns="http://www.w3.org/2000/svg" xmlns:xlink="http://www.w3.org/1999/xlink" x="0px" y="0px"
	 width="77.9px" height="77.9px" viewBox="0 0 77.9 77.9" style="enable-background:new 0 0 77.9 77.9;" xml:space="preserve">
<style type="text/css">
	.st0{fill-rule:evenodd;clip-rule:evenodd;}
</style>
<path class="st0" d="M67.9,0H10C4.5,0,0,4.1,0,10v57.9c0,5.9,4.5,10,10,10h57.9c5.5,0,10-4.1,10-10V10C77.9,4.1,73.4,0,67.9,0z
	 M53.2,12.2c0-1.9,1.6-3.5,3.5-3.5h8.8c1.9,0,3.5,1.6,3.5,3.5v8.4c0,1.9-1.6,3.5-3.5,3.5h-8.8c-1.9,0-3.5-1.6-3.5-3.5V12.2z
	 M39,23.6c8.6,0,15.6,6.8,15.6,15.2S47.7,54,39,54c-8.6,0-15.6-6.8-15.6-15.2S30.4,23.6,39,23.6z M69.1,65.9c0,1.7-1.4,3.1-3.1,3.1
	H11.8c-1.7,0-3.1-1.4-3.1-3.1V32.9h7.2c-0.6,2.1-1,4.4-1,6.7c0,13,10.8,23.5,24.2,23.5s24.2-10.5,24.2-23.5c0-2.3-0.4-4.6-1-6.7h6.9
	V65.9z"/>
</svg>
