<?xml version="1.0" encoding="utf-8"?>
<!-- Generator: Adobe Illustrator 17.1.0, SVG Export Plug-In . SVG Version: 6.00 Build 0)  -->
<!DOCTYPE svg PUBLIC "-//W3C//DTD SVG 1.1//EN" "http://www.w3.org/Graphics/SVG/1.1/DTD/svg11.dtd">
<svg version="1.1" id="Layer_1" xmlns="http://www.w3.org/2000/svg" xmlns:xlink="http://www.w3.org/1999/xlink" x="0px" y="0px"
	 width="769.2px" height="772.2px" viewBox="0 0 769.2 772.2" style="enable-background:new 0 0 769.2 772.2;" xml:space="preserve"
	>
<g>
	<path d="M209.6,24c0-13.3-10.7-24-24-24H24C10.7,0,0,10.7,0,24v161.7c0,13.3,10.7,24,24,24h161.7c13.3,0,24-10.7,24-24L209.6,24
		L209.6,24z M209.6,24"/>
	<path d="M489.4,24c0-13.3-10.7-24-24-24H303.8c-13.3,0-24,10.7-24,24v161.7c0,13.3,10.7,24,24,24h161.6c13.3,0,24-10.7,24-24V24z
		 M489.4,24"/>
	<path d="M769.1,24c0-13.3-10.7-24-24-24H583.5c-13.3,0-24,10.7-24,24v161.7c0,13.3,10.7,24,24,24h161.7c13.3,0,24-10.7,24-24
		L769.1,24L769.1,24z M769.1,24"/>
	<path d="M209.6,305.3c0-13.3-10.7-24-24-24H24c-13.3,0-24,10.7-24,24v161.6c0,13.3,10.7,24,24,24h161.7c13.3,0,24-10.7,24-24
		L209.6,305.3L209.6,305.3z M209.6,305.3"/>
	<path d="M489.4,305.3c0-13.3-10.7-24-24-24H303.8c-13.3,0-24,10.7-24,24v161.6c0,13.3,10.7,24,24,24h161.6c13.3,0,24-10.7,24-24
		V305.3z M489.4,305.3"/>
	<path d="M769.1,305.3c0-13.3-10.7-24-24-24H583.5c-13.3,0-24,10.7-24,24v161.6c0,13.3,10.7,24,24,24h161.7c13.3,0,24-10.7,24-24
		L769.1,305.3L769.1,305.3z M769.1,305.3"/>
	<path d="M185.6,562.5H24c-13.3,0-24,10.7-24,24v161.7c0,13.3,10.7,24,24,24h161.7c13.3,0,24-10.7,24-24V586.5
		C209.6,573.3,198.9,562.5,185.6,562.5L185.6,562.5z M185.6,562.5"/>
	<path d="M465.4,562.5H303.8c-13.3,0-24,10.7-24,24v161.7c0,13.3,10.7,24,24,24h161.6c13.3,0,24-10.7,24-24V586.5
		C489.4,573.3,478.6,562.5,465.4,562.5L465.4,562.5z M465.4,562.5"/>
	<path d="M745.1,562.5H583.5c-13.3,0-24,10.7-24,24v161.7c0,13.3,10.7,24,24,24h161.7c13.3,0,24-10.7,24-24V586.5
		C769.1,573.3,758.4,562.5,745.1,562.5L745.1,562.5z M745.1,562.5"/>
</g>
</svg>
